<?xml version="1.0" encoding="UTF-8" standalone="no"?>
<!DOCTYPE svg PUBLIC "-//W3C//DTD SVG 1.1//EN"
 "http://www.w3.org/Graphics/SVG/1.1/DTD/svg11.dtd">
<!-- Generated by graphviz version 2.40.1 (20161225.0304)
 -->
<!-- Title: graph2 Pages: 1 -->
<svg width="602pt" height="443pt"
 viewBox="0.00 0.00 602.00 443.20" xmlns="http://www.w3.org/2000/svg" xmlns:xlink="http://www.w3.org/1999/xlink">
<g id="graph0" class="graph" transform="scale(1 1) rotate(0) translate(4 439.2)">
<title>graph2</title>
<polygon fill="#ffffff" stroke="transparent" points="-4,4 -4,-439.2 598,-439.2 598,4 -4,4"/>
<!-- step1 -->
<g id="node1" class="node">
<title>step1</title>
<polygon fill="none" stroke="#000000" points="288,-435.2 0,-435.2 0,-399.2 288,-399.2 288,-435.2"/>
<text text-anchor="middle" x="144" y="-413" font-family="Arial" font-size="14.00" fill="#000000">Records identified from lens.org (n = 1538)</text>
</g>
<!-- step2 -->
<g id="node2" class="node">
<title>step2</title>
<polygon fill="none" stroke="#000000" points="288,-343.6 0,-343.6 0,-307.6 288,-307.6 288,-343.6"/>
<text text-anchor="middle" x="144" y="-321.4" font-family="Arial" font-size="14.00" fill="#000000">Records screened (n = 1538)</text>
</g>
<!-- step1&#45;&gt;step2 -->
<g id="edge1" class="edge">
<title>step1&#45;&gt;step2</title>
<path fill="none" stroke="#000000" d="M144,-399.1028C144,-386.1805 144,-368.5454 144,-353.7881"/>
<polygon fill="#000000" stroke="#000000" points="147.5001,-353.6596 144,-343.6596 140.5001,-353.6597 147.5001,-353.6596"/>
</g>
<!-- step3 -->
<g id="node3" class="node">
<title>step3</title>
<polygon fill="none" stroke="#000000" points="288,-252 0,-252 0,-216 288,-216 288,-252"/>
<text text-anchor="middle" x="144" y="-229.8" font-family="Arial" font-size="14.00" fill="#000000">Reports assessed for eligibility (n = 205)</text>
</g>
<!-- step2&#45;&gt;step3 -->
<g id="edge2" class="edge">
<title>step2&#45;&gt;step3</title>
<path fill="none" stroke="#000000" d="M144,-307.5028C144,-294.5805 144,-276.9454 144,-262.1881"/>
<polygon fill="#000000" stroke="#000000" points="147.5001,-262.0596 144,-252.0596 140.5001,-262.0597 147.5001,-262.0596"/>
</g>
<!-- step2out -->
<g id="node6" class="node">
<title>step2out</title>
<polygon fill="none" stroke="#000000" points="594,-363.3003 306,-363.3003 306,-287.8997 594,-287.8997 594,-363.3003"/>
<text text-anchor="middle" x="450" y="-346.6" font-family="Arial" font-size="14.00" fill="#000000">Records excluded: </text>
<text text-anchor="middle" x="450" y="-329.8" font-family="Arial" font-size="14.00" fill="#000000"> Not in English (n=72)</text>
<text text-anchor="middle" x="450" y="-313" font-family="Arial" font-size="14.00" fill="#000000">Not Relevant (n=1129)</text>
<text text-anchor="middle" x="450" y="-296.2" font-family="Arial" font-size="14.00" fill="#000000">Theoretical (n=132)</text>
</g>
<!-- step2&#45;&gt;step2out -->
<g id="edge5" class="edge">
<title>step2&#45;&gt;step2out</title>
<path fill="none" stroke="#000000" d="M288.0352,-325.6C290.5263,-325.6 293.0175,-325.6 295.5086,-325.6"/>
<polygon fill="#000000" stroke="#000000" points="295.7501,-329.1001 305.7501,-325.6 295.75,-322.1001 295.7501,-329.1001"/>
</g>
<!-- step4 -->
<g id="node4" class="node">
<title>step4</title>
<polygon fill="none" stroke="#000000" points="288,-180 0,-180 0,-144 288,-144 288,-180"/>
<text text-anchor="middle" x="144" y="-157.8" font-family="Arial" font-size="14.00" fill="#000000">Reports identified as eligible (n = 102)</text>
</g>
<!-- step3&#45;&gt;step4 -->
<g id="edge3" class="edge">
<title>step3&#45;&gt;step4</title>
<path fill="none" stroke="#000000" d="M144,-215.8314C144,-208.131 144,-198.9743 144,-190.4166"/>
<polygon fill="#000000" stroke="#000000" points="147.5001,-190.4132 144,-180.4133 140.5001,-190.4133 147.5001,-190.4132"/>
</g>
<!-- step3out -->
<g id="node7" class="node">
<title>step3out</title>
<polygon fill="none" stroke="#000000" points="594,-252 306,-252 306,-216 594,-216 594,-252"/>
<text text-anchor="middle" x="450" y="-229.8" font-family="Arial" font-size="14.00" fill="#000000">Reports excluded (n = 103)</text>
</g>
<!-- step3&#45;&gt;step3out -->
<g id="edge6" class="edge">
<title>step3&#45;&gt;step3out</title>
<path fill="none" stroke="#000000" d="M288.0352,-234C290.5263,-234 293.0175,-234 295.5086,-234"/>
<polygon fill="#000000" stroke="#000000" points="295.7501,-237.5001 305.7501,-234 295.75,-230.5001 295.7501,-237.5001"/>
</g>
<!-- step5 -->
<g id="node5" class="node">
<title>step5</title>
<polygon fill="none" stroke="#000000" points="288,-108 0,-108 0,-72 288,-72 288,-108"/>
<text text-anchor="middle" x="144" y="-85.8" font-family="Arial" font-size="14.00" fill="#000000">Data obtained (n = 34)</text>
</g>
<!-- step4&#45;&gt;step5 -->
<g id="edge4" class="edge">
<title>step4&#45;&gt;step5</title>
<path fill="none" stroke="#000000" d="M144,-143.8314C144,-136.131 144,-126.9743 144,-118.4166"/>
<polygon fill="#000000" stroke="#000000" points="147.5001,-118.4132 144,-108.4133 140.5001,-118.4133 147.5001,-118.4132"/>
</g>
<!-- final -->
<g id="node9" class="node">
<title>final</title>
<polygon fill="none" stroke="#000000" points="441,-36 153,-36 153,0 441,0 441,-36"/>
<text text-anchor="middle" x="297" y="-13.8" font-family="Arial" font-size="14.00" fill="#000000">Final dataset (n = 40)</text>
</g>
<!-- step5&#45;&gt;final -->
<g id="edge8" class="edge">
<title>step5&#45;&gt;final</title>
<path fill="none" stroke="#000000" d="M182.6084,-71.8314C202.8893,-62.2874 227.9238,-50.5065 249.3971,-40.4013"/>
<polygon fill="#000000" stroke="#000000" points="251.1114,-43.4629 258.6693,-36.038 248.1308,-37.1291 251.1114,-43.4629"/>
</g>
<!-- snowball -->
<g id="node8" class="node">
<title>snowball</title>
<polygon fill="none" stroke="#000000" points="594,-108 306,-108 306,-72 594,-72 594,-108"/>
<text text-anchor="middle" x="450" y="-85.8" font-family="Arial" font-size="14.00" fill="#000000">Additional reports identified (n = 6)</text>
</g>
<!-- snowball&#45;&gt;final -->
<g id="edge7" class="edge">
<title>snowball&#45;&gt;final</title>
<path fill="none" stroke="#000000" d="M411.3916,-71.8314C391.1107,-62.2874 366.0762,-50.5065 344.6029,-40.4013"/>
<polygon fill="#000000" stroke="#000000" points="345.8692,-37.1291 335.3307,-36.038 342.8886,-43.4629 345.8692,-37.1291"/>
</g>
</g>
</svg>

