<?xml version="1.0" encoding="UTF-8" standalone="no"?>
<!DOCTYPE svg PUBLIC "-//W3C//DTD SVG 1.1//EN"
 "http://www.w3.org/Graphics/SVG/1.1/DTD/svg11.dtd">
<!-- Generated by graphviz version 2.40.1 (20161225.0304)
 -->
<!-- Title: graph2 Pages: 1 -->
<svg width="602pt" height="454pt"
 viewBox="0.00 0.00 602.00 454.40" xmlns="http://www.w3.org/2000/svg" xmlns:xlink="http://www.w3.org/1999/xlink">
<g id="graph0" class="graph" transform="scale(1 1) rotate(0) translate(4 450.4)">
<title>graph2</title>
<polygon fill="#ffffff" stroke="transparent" points="-4,4 -4,-450.4 598,-450.4 598,4 -4,4"/>
<!-- step1 -->
<g id="node1" class="node">
<title>step1</title>
<polygon fill="none" stroke="#000000" points="288,-446.4 0,-446.4 0,-410.4 288,-410.4 288,-446.4"/>
<text text-anchor="middle" x="144" y="-424.2" font-family="Arial" font-size="14.00" fill="#000000">Records identified from lens.org (n = 1538)</text>
</g>
<!-- step2 -->
<g id="node2" class="node">
<title>step2</title>
<polygon fill="none" stroke="#000000" points="288,-354.8 0,-354.8 0,-318.8 288,-318.8 288,-354.8"/>
<text text-anchor="middle" x="144" y="-332.6" font-family="Arial" font-size="14.00" fill="#000000">Records screened (n = 1538)</text>
</g>
<!-- step1&#45;&gt;step2 -->
<g id="edge1" class="edge">
<title>step1&#45;&gt;step2</title>
<path fill="none" stroke="#000000" d="M144,-410.3028C144,-397.3805 144,-379.7454 144,-364.9881"/>
<polygon fill="#000000" stroke="#000000" points="147.5001,-364.8596 144,-354.8596 140.5001,-364.8597 147.5001,-364.8596"/>
</g>
<!-- step3 -->
<g id="node3" class="node">
<title>step3</title>
<polygon fill="none" stroke="#000000" points="288,-263.2 0,-263.2 0,-227.2 288,-227.2 288,-263.2"/>
<text text-anchor="middle" x="144" y="-241" font-family="Arial" font-size="14.00" fill="#000000">Reports assessed for eligibility (n = 205)</text>
</g>
<!-- step2&#45;&gt;step3 -->
<g id="edge2" class="edge">
<title>step2&#45;&gt;step3</title>
<path fill="none" stroke="#000000" d="M144,-318.7028C144,-305.7805 144,-288.1454 144,-273.3881"/>
<polygon fill="#000000" stroke="#000000" points="147.5001,-273.2596 144,-263.2596 140.5001,-273.2597 147.5001,-273.2596"/>
</g>
<!-- step2out -->
<g id="node6" class="node">
<title>step2out</title>
<polygon fill="none" stroke="#000000" points="594,-374.5003 306,-374.5003 306,-299.0997 594,-299.0997 594,-374.5003"/>
<text text-anchor="middle" x="450" y="-357.8" font-family="Arial" font-size="14.00" fill="#000000">Records excluded: </text>
<text text-anchor="middle" x="450" y="-341" font-family="Arial" font-size="14.00" fill="#000000"> Not in English (n=72)</text>
<text text-anchor="middle" x="450" y="-324.2" font-family="Arial" font-size="14.00" fill="#000000">Not Relevant (n=1129)</text>
<text text-anchor="middle" x="450" y="-307.4" font-family="Arial" font-size="14.00" fill="#000000">Theoretical (n=132)</text>
</g>
<!-- step2&#45;&gt;step2out -->
<g id="edge5" class="edge">
<title>step2&#45;&gt;step2out</title>
<path fill="none" stroke="#000000" d="M288.0352,-336.8C290.5263,-336.8 293.0175,-336.8 295.5086,-336.8"/>
<polygon fill="#000000" stroke="#000000" points="295.7501,-340.3001 305.7501,-336.8 295.75,-333.3001 295.7501,-340.3001"/>
</g>
<!-- step4 -->
<g id="node4" class="node">
<title>step4</title>
<polygon fill="none" stroke="#000000" points="288,-191.2 0,-191.2 0,-155.2 288,-155.2 288,-191.2"/>
<text text-anchor="middle" x="144" y="-169" font-family="Arial" font-size="14.00" fill="#000000">Reports identified as eligible (n = 102)</text>
</g>
<!-- step3&#45;&gt;step4 -->
<g id="edge3" class="edge">
<title>step3&#45;&gt;step4</title>
<path fill="none" stroke="#000000" d="M144,-227.0314C144,-219.331 144,-210.1743 144,-201.6166"/>
<polygon fill="#000000" stroke="#000000" points="147.5001,-201.6132 144,-191.6133 140.5001,-201.6133 147.5001,-201.6132"/>
</g>
<!-- step3out -->
<g id="node7" class="node">
<title>step3out</title>
<polygon fill="none" stroke="#000000" points="594,-263.2 306,-263.2 306,-227.2 594,-227.2 594,-263.2"/>
<text text-anchor="middle" x="450" y="-241" font-family="Arial" font-size="14.00" fill="#000000">Reports excluded (n = 103)</text>
</g>
<!-- step3&#45;&gt;step3out -->
<g id="edge6" class="edge">
<title>step3&#45;&gt;step3out</title>
<path fill="none" stroke="#000000" d="M288.0352,-245.2C290.5263,-245.2 293.0175,-245.2 295.5086,-245.2"/>
<polygon fill="#000000" stroke="#000000" points="295.7501,-248.7001 305.7501,-245.2 295.75,-241.7001 295.7501,-248.7001"/>
</g>
<!-- step5 -->
<g id="node5" class="node">
<title>step5</title>
<polygon fill="none" stroke="#000000" points="288,-119.0019 0,-119.0019 0,-77.7981 288,-77.7981 288,-119.0019"/>
<text text-anchor="middle" x="144" y="-102.6" font-family="Arial" font-size="14.00" fill="#000000">Data obtained (n = 34)</text>
<text text-anchor="middle" x="144" y="-85.8" font-family="Arial" font-size="14.00" fill="#000000">(67 datasets)</text>
</g>
<!-- step4&#45;&gt;step5 -->
<g id="edge4" class="edge">
<title>step4&#45;&gt;step5</title>
<path fill="none" stroke="#000000" d="M144,-155.093C144,-147.4083 144,-138.2272 144,-129.5145"/>
<polygon fill="#000000" stroke="#000000" points="147.5001,-129.2515 144,-119.2515 140.5001,-129.2515 147.5001,-129.2515"/>
</g>
<!-- final -->
<g id="node9" class="node">
<title>final</title>
<polygon fill="none" stroke="#000000" points="441,-41.4019 153,-41.4019 153,-.1981 441,-.1981 441,-41.4019"/>
<text text-anchor="middle" x="297" y="-25" font-family="Arial" font-size="14.00" fill="#000000">Reports included in the analysis (n = 42)</text>
<text text-anchor="middle" x="297" y="-8.2" font-family="Arial" font-size="14.00" fill="#000000">(105 datasets)</text>
</g>
<!-- step5&#45;&gt;final -->
<g id="edge8" class="edge">
<title>step5&#45;&gt;final</title>
<path fill="none" stroke="#000000" d="M185.0012,-77.6046C204.1145,-67.9105 227.0266,-56.2898 247.1338,-46.0916"/>
<polygon fill="#000000" stroke="#000000" points="248.8158,-49.163 256.1511,-41.5181 245.6495,-42.9201 248.8158,-49.163"/>
</g>
<!-- snowball -->
<g id="node8" class="node">
<title>snowball</title>
<polygon fill="none" stroke="#000000" points="594,-119.0019 306,-119.0019 306,-77.7981 594,-77.7981 594,-119.0019"/>
<text text-anchor="middle" x="450" y="-102.6" font-family="Arial" font-size="14.00" fill="#000000">Additional reports identified (n = 8)</text>
<text text-anchor="middle" x="450" y="-85.8" font-family="Arial" font-size="14.00" fill="#000000">(38 datasets)</text>
</g>
<!-- snowball&#45;&gt;final -->
<g id="edge7" class="edge">
<title>snowball&#45;&gt;final</title>
<path fill="none" stroke="#000000" d="M408.9988,-77.6046C389.8855,-67.9105 366.9734,-56.2898 346.8662,-46.0916"/>
<polygon fill="#000000" stroke="#000000" points="348.3505,-42.9201 337.8489,-41.5181 345.1842,-49.163 348.3505,-42.9201"/>
</g>
</g>
</svg>

